<svg xmlns="http://www.w3.org/2000/svg" viewBox="0 0 24 24" fill="currentColor" aria-hidden="true">
  <path d="M12 2.25c4.56 0 8.25 3.34 8.25 7.45 0 2.72-1.63 5.09-4.05 6.39v2.21c0 .83-.67 1.5-1.5 1.5h-.95v1.2a.75.75 0 0 1-1.5 0v-1.2h-.5v1.2a.75.75 0 0 1-1.5 0v-1.2H9.3c-.83 0-1.5-.67-1.5-1.5v-2.21c-2.42-1.3-4.05-3.67-4.05-6.39 0-4.11 3.69-7.45 8.25-7.45Zm-3.2 7.1c-1.05 0-1.9.76-1.9 1.7s.85 1.7 1.9 1.7 1.9-.76 1.9-1.7-.85-1.7-1.9-1.7Zm6.4 0c-1.05 0-1.9.76-1.9 1.7s.85 1.7 1.9 1.7 1.9-.76 1.9-1.7-.85-1.7-1.9-1.7Zm-3.2 4.4c-.75 0-1.5.85-1.5 1.65h3c0-.8-.75-1.65-1.5-1.65Z"/>
</svg>
